<?xml version="1.0" encoding="UTF-8"?>
<svg id="ARTEK_Icon" xmlns="http://www.w3.org/2000/svg" viewBox="0 0 220 223">
  <defs>
    <style>
      .stroke {
        fill: none;
        stroke: #414042;
        stroke-width: 8;
        stroke-miterlimit: 10;
        stroke-linecap: round;
        stroke-linejoin: round;
      }
    </style>
  </defs>
  <g id="Symbol">
    <!-- Outer ring -->
    <path class="stroke" d="M82.324 191.887C69.812 187.754 58.074 180.687 48.14 170.754C13.98 136.594 13.98 81.219 48.14 47.058C82.297 12.898 137.672 12.898 171.832 47.058C205.992 81.219 205.992 136.594 171.832 170.754C161.976 180.609 150.347 187.617 137.969 191.781"/>
    <!-- Middle ring -->
    <path class="stroke" d="M96.398 168.578C85.492 166.16 75.156 160.656 66.695 152.195C42.793 128.297 42.793 89.515 66.695 65.617C90.597 41.715 129.375 41.715 153.277 65.617C177.176 89.515 177.176 128.297 153.277 152.195C144.871 160.601 134.64 166.054 123.844 168.523"/>
    <!-- Inner ring -->
    <path class="stroke" d="M96.398 142.367C92.047 140.594 87.992 137.937 84.472 134.418C70.375 120.32 70.375 97.492 84.472 83.394C98.57 69.297 121.398 69.297 135.496 83.394C149.597 97.492 149.597 120.32 135.496 134.418C132.058 137.855 128.113 140.461 123.871 142.234"/>
    <!-- Center vertical line -->
    <path class="stroke" d="M110.137 121.355V109.676"/>
    <!-- Rocket/Arrow shape -->
    <path class="stroke" d="M97.738 178.679L85.191 186.937V216.121L109.949 199.996L134.742 216.121V186.937L122.195 178.679V134.972C122.195 128.445 116.715 123.156 109.949 123.156C103.219 123.156 97.738 128.445 97.738 134.972V178.679Z"/>
    <path class="stroke" d="M110.137 199.996V181.429"/>
    <path class="stroke" d="M121.847 179.094H96.644"/>
    <!-- Top crosshair -->
    <path class="stroke" d="M109.984 71.379V5"/>
    <!-- Right crosshair -->
    <path class="stroke" d="M147.531 112.363H213.91"/>
    <!-- Left crosshair -->
    <path class="stroke" d="M6 112.363H72.379"/>
    <!-- Center circle -->
    <path class="stroke" d="M124.101 109.199C124.101 116.914 117.847 123.164 110.137 123.164C102.422 123.164 96.172 116.914 96.172 109.199C96.172 101.488 102.422 95.2339 110.137 95.2339C117.847 95.2339 124.101 101.488 124.101 109.199Z"/>
  </g>
</svg>
