<?xml version="1.0" encoding="UTF-8"?>
<svg id="ARTEK_Horizontal" xmlns="http://www.w3.org/2000/svg" viewBox="0 0 879.72 223">
  <defs>
    <style>
      .stroke {
        fill: none;
        stroke: #414042;
        stroke-width: 8;
        stroke-miterlimit: 10;
        stroke-linecap: round;
        stroke-linejoin: round;
      }
      .fill {
        fill: #414042;
      }
    </style>
  </defs>

  <!-- Logomark (Symbol) - identical to artek-icon-master.svg -->
  <g id="Logomark">
    <!-- Outer ring -->
    <path class="stroke" d="M82.324 191.887C69.812 187.754 58.074 180.687 48.14 170.754C13.98 136.594 13.98 81.219 48.14 47.058C82.297 12.898 137.672 12.898 171.832 47.058C205.992 81.219 205.992 136.594 171.832 170.754C161.976 180.609 150.347 187.617 137.969 191.781"/>
    <!-- Middle ring -->
    <path class="stroke" d="M96.398 168.578C85.492 166.16 75.156 160.656 66.695 152.195C42.793 128.297 42.793 89.515 66.695 65.617C90.597 41.715 129.375 41.715 153.277 65.617C177.176 89.515 177.176 128.297 153.277 152.195C144.871 160.601 134.64 166.054 123.844 168.523"/>
    <!-- Inner ring -->
    <path class="stroke" d="M96.398 142.367C92.047 140.594 87.992 137.937 84.472 134.418C70.375 120.32 70.375 97.492 84.472 83.394C98.57 69.297 121.398 69.297 135.496 83.394C149.597 97.492 149.597 120.32 135.496 134.418C132.058 137.855 128.113 140.461 123.871 142.234"/>
    <!-- Center vertical line -->
    <path class="stroke" d="M110.137 121.355V109.676"/>
    <!-- Rocket/Arrow shape -->
    <path class="stroke" d="M97.738 178.679L85.191 186.937V216.121L109.949 199.996L134.742 216.121V186.937L122.195 178.679V134.972C122.195 128.445 116.715 123.156 109.949 123.156C103.219 123.156 97.738 128.445 97.738 134.972V178.679Z"/>
    <path class="stroke" d="M110.137 199.996V181.429"/>
    <path class="stroke" d="M121.847 179.094H96.644"/>
    <!-- Top crosshair -->
    <path class="stroke" d="M109.984 71.379V5"/>
    <!-- Right crosshair -->
    <path class="stroke" d="M147.531 112.363H213.91"/>
    <!-- Left crosshair -->
    <path class="stroke" d="M6 112.363H72.379"/>
    <!-- Center circle -->
    <path class="stroke" d="M124.101 109.199C124.101 116.914 117.847 123.164 110.137 123.164C102.422 123.164 96.172 116.914 96.172 109.199C96.172 101.488 102.422 95.2339 110.137 95.2339C117.847 95.2339 124.101 101.488 124.101 109.199Z"/>
  </g>

  <!-- Logotype (ARTEK Text) -->
  <g id="Logotype">
    <!-- A -->
    <path class="fill" d="M241.19,68.45h119.84v85.04h-19.36v-30.61h-80.98v30.61h-19.49v-85.04ZM260.68,87.82v18.58h80.98v-18.58h-80.98Z"/>
    <!-- R -->
    <path class="fill" d="M372.93,68.45h89.49c13.61,0,24.6,10.99,24.6,24.46v3.27c0,13.48-10.99,24.47-24.6,24.47h-33.23c-2.88,0-11.25-2.75-12.95-3.01l-.13.26c19.49,11.51,37.68,16.48,60.05,16.48h10.2q.13,0,.13.13l2.49,18.71c0,.13-.13.13-.13.13h-12.69c-22.5,0-44.09-12.56-82.29-31.66-.52-.26-1.31-2.49-1.31-2.49h-.26v34.15c0,.13-.13.13-.13.13h-19.23q-.13,0-.13-.13v-84.78q0-.13.13-.13ZM392.29,87.95v16.48h66.98c4.45,0,8.11-3.66,8.11-8.11l.13-.26c0-4.45-3.66-8.24-8.24-8.24h-66.98v.13Z"/>
    <!-- T -->
    <path class="fill" d="M542.74,86.9l-47.49.39-2.35-18.84h119.05l-2.36,18.84-47.49-.39v66.59h-19.36v-66.59Z"/>
    <!-- E -->
    <path class="fill" d="M620.44,68.45h117.88l-4.06,19.36h-94.33v15.05h66.46l-2.49,16.22h-63.97v14.91h94.33l4.06,19.49h-117.88v-85.04Z"/>
    <!-- K -->
    <path class="fill" d="M767.49,68.19v33.23c22.89-12.04,58.09-32.97,69.47-34.02l16.48-.13-2.49,19.1h-12.56c-5.1.79-26.82,9.42-46.97,19.49,15.57,14,40.95,28.39,54.16,28.39h7.85l2.49,18.97h-10.34c-26.82,0-54.69-26.43-68.42-39.51l-9.68,5.36v34.41h-19.49v-85.3h19.49Z"/>
  </g>
</svg>
